<?xml version="1.0" encoding="utf-8"?>
<!-- Generator: Adobe Illustrator 22.1.0, SVG Export Plug-In . SVG Version: 6.00 Build 0)  -->
<svg version="1.1" id="icon-material-durability" xmlns="http://www.w3.org/2000/svg" xmlns:xlink="http://www.w3.org/1999/xlink"
	 x="0px" y="0px" viewBox="0 0 61.1 61.1" style="enable-background:new 0 0 61.1 61.1;" xml:space="preserve">
<path d="M54.1,43.2L36.8,26c0.4-1.3,0-2.5-0.6-3.3l-2-3.5c3.2-1.6,8.4-2,10.4-2c1.8,0,2.8-0.9,3.2-1.8c0.3-0.5,0.3-1,0.2-1.6
	c-0.2-0.9-0.8-1.7-1.9-2.2L46,11.5l-0.1,0c-8.4-2.8-15.2-0.2-18.1,0.8c-0.2,0.1-0.4,0.2-0.6,0.2c-1.5,0.5-4.5,2.2-6.8,3.9
	c-3.8,2.8-5.3,5-4.9,7c0.3,1.5-0.1,2.7-0.3,3.2L14.7,27c-1.7-0.2-3.3,0.7-4.1,1.5l-2.7,2.7C7.2,31.9,7,32.8,7,33.3
	c0,1.1,0.7,1.8,0.9,2.1l5,5c1.4,1.4,3.3,1.1,4.5,0l2.4-2.4c1.4-1.4,1.7-3,1.5-4.1c0.7-0.6,1.9-1.1,3.1-0.2c1.3,1.1,2.9,1,4.2,0.4
	l18,17.6c-4.6,3.5-10.3,5.4-16.2,5.5c-14.7,0-26.7-12-26.7-26.7s12-26.7,26.7-26.7s26.7,12,26.7,26.7C57.2,35,56.1,39.3,54.1,43.2
	 M30.5,0C13.7,0,0,13.7,0,30.5s13.7,30.5,30.5,30.5c7.4,0,14.5-2.7,20-7.5c0.2-0.2,0.4-0.4,0.5-0.6c0.5-0.8,0.5-1.8-0.2-2.5L29,29.2
	l-1.3,1.2c-0.2,0.2-0.6,0.4-0.8,0.5l0,0c-2-1.6-4.3-1.8-6.6-0.7c-1,0.5-1.8,1.2-2.6,2.1l-1,1l0.8,1.1c0.1,0.2,0.1,0.6-0.4,1.1
	l-1.9,1.9l-4-4l2-2c0.4-0.3,0.9-0.5,1.1-0.5l1.3,0.8l2.6-2.6l0.1-0.2c0.1-0.3,1.4-2.7,0.9-5.8c0.2-0.4,1.1-1.7,3.9-3.7
	c2.2-1.6,4.5-2.8,5.3-3.1c0.2-0.1,0.4-0.2,0.7-0.2c1.7-0.6,4.9-1.8,8.9-1.8c-2.6,0.5-5.5,1.4-7.5,3l-1.3,1l0.8,1.4l3,5.2l0,0.1
	l0.1,0.1l0,0l-1.3,1.3l21.3,21.3l0,0c0.7,0.8,1.9,0.8,2.7,0.1c0.1-0.1,0.2-0.2,0.3-0.3c3.3-5,5-10.8,5-16.8C61.1,13.7,47.4,0,30.5,0
	"/>
</svg>
