<?xml version="1.0" encoding="utf-8"?>
<!-- Generator: Adobe Illustrator 22.1.0, SVG Export Plug-In . SVG Version: 6.00 Build 0)  -->
<svg version="1.1" id="icon-value-warranty" xmlns="http://www.w3.org/2000/svg" xmlns:xlink="http://www.w3.org/1999/xlink"
	 x="0px" y="0px" viewBox="0 0 26.5 32.7" style="enable-background:new 0 0 26.5 32.7;" xml:space="preserve">
<path d="M7.9,0C7.7,0,7.5,0.1,7.4,0.2L0.2,6.9C0.1,7.1,0,7.3,0,7.5v23c0,0.4,0.3,0.7,0.8,0.7h14.7V32c0,0.3,0.1,0.5,0.4,0.6
	c0.2,0.1,0.5,0.1,0.8,0l2.3-1.3l2.3,1.3c0.2,0.1,0.5,0.1,0.8,0c0.2-0.1,0.4-0.4,0.4-0.6v-0.7h3.4c0.4,0,0.8-0.3,0.8-0.7c0,0,0,0,0,0
	V0.7c0-0.4-0.3-0.7-0.8-0.7L7.9,0C7.9,0,7.9,0,7.9,0L7.9,0z M8.7,1.5H25v28.3h-2.6v-4.5v0c0.7-0.8,1.1-1.9,1.1-2.9
	c0-2.5-2-4.5-4.5-4.5c-2.5,0-4.5,2-4.5,4.5c0,1.1,0.4,2.2,1.1,2.9v4.5h-14V8.6h6.4c0.4,0,0.8-0.3,0.8-0.7c0,0,0,0,0,0h11
	c0.3,0,0.5-0.1,0.7-0.4c0.1-0.2,0.1-0.5,0-0.8c-0.1-0.2-0.4-0.4-0.7-0.4h-11V1.5z M7.2,2.5v4.6H2.3C2.3,7.1,7.2,2.5,7.2,2.5z
	 M6.7,10c-0.3,0-0.5,0.2-0.6,0.4C6,10.7,6,11,6.1,11.2c0.1,0.2,0.4,0.4,0.7,0.3h12.9c0.3,0,0.5-0.1,0.7-0.4c0.1-0.2,0.1-0.5,0-0.8
	c-0.1-0.2-0.4-0.4-0.7-0.4H6.7C6.8,10,6.8,10,6.7,10L6.7,10z M6.7,13.8c-0.3,0-0.5,0.2-0.6,0.4c-0.1,0.2-0.1,0.5,0,0.7
	c0.1,0.2,0.4,0.4,0.7,0.3h12.9c0.3,0,0.5-0.1,0.7-0.4c0.1-0.2,0.1-0.5,0-0.8c-0.1-0.2-0.4-0.4-0.7-0.4H6.7
	C6.8,13.8,6.8,13.8,6.7,13.8L6.7,13.8z M18.9,19.3c1.7,0,3,1.3,3,3s-1.3,3-3,3c-1.7,0-3-1.3-3-3S17.2,19.3,18.9,19.3z M4.1,20.1
	c-0.4,0-0.7,0.4-0.7,0.8c0,0,0,0,0,0c0,0.4,0.4,0.7,0.8,0.7h7.6c0.3,0,0.5-0.1,0.7-0.4c0.1-0.2,0.1-0.5,0-0.7
	c-0.1-0.2-0.4-0.4-0.7-0.4H4.1C4.1,20.1,4.1,20.1,4.1,20.1L4.1,20.1z M4.1,23.1c-0.3,0-0.5,0.2-0.6,0.4c-0.1,0.2-0.1,0.5,0,0.7
	c0.1,0.2,0.4,0.4,0.7,0.3h7.6c0.3,0,0.5-0.1,0.7-0.4c0.1-0.2,0.1-0.5,0-0.8c-0.1-0.2-0.4-0.4-0.7-0.4H4.1
	C4.1,23.1,4.1,23.1,4.1,23.1L4.1,23.1z M17,26.4c0.6,0.3,1.2,0.4,1.9,0.4c0.7,0,1.3-0.2,1.9-0.4v4.3l-1.5-0.8
	c-0.2-0.1-0.5-0.1-0.8,0L17,30.7C17,30.7,17,26.4,17,26.4z"/>
</svg>
