<?xml version="1.0" encoding="utf-8"?>
<!-- Generator: Adobe Illustrator 22.1.0, SVG Export Plug-In . SVG Version: 6.00 Build 0)  -->
<svg version="1.1" id="icon-value-safe" xmlns="http://www.w3.org/2000/svg" xmlns:xlink="http://www.w3.org/1999/xlink" x="0px"
	 y="0px" viewBox="0 0 24.3 32.6" style="enable-background:new 0 0 24.3 32.6;" xml:space="preserve">
<path d="M3.6,12.3c0.3-0.1,0.6-0.1,1-0.1h2.6V8.4c0-3,2.5-5.5,5.6-5.5s5.6,2.5,5.6,5.5v3.7h1.3c0.3,0,0.6,0,1,0.1V9.1
	c0-4.3-3.8-7.8-8.5-7.8S3.6,4.8,3.6,9.1V12.3z M2.3,12.8V9.1c0-5,4.4-9.1,9.8-9.1S22,4.1,22,9.1v3.7c1.4,0.9,2.3,2.4,2.3,4.1v10.9
	c0,2.6-2.1,4.7-4.6,4.7h-15c-2.5,0-4.6-2.1-4.6-4.7V16.9C0,15.2,0.9,13.6,2.3,12.8L2.3,12.8z M8.6,12.2H17V8.4
	c0-2.3-1.9-4.2-4.2-4.2S8.6,6.2,8.6,8.4L8.6,12.2L8.6,12.2z M4.6,13.5c-1.8,0-3.3,1.5-3.3,3.4v10.9c0,1.9,1.5,3.4,3.3,3.4h15
	c1.8,0,3.3-1.5,3.3-3.4V16.9c0-1.9-1.5-3.4-3.3-3.4C19.7,13.5,4.6,13.5,4.6,13.5z M10.9,25.3l-3.7-3.8l0.9-1l2.8,2.8l5.8-6l0.9,1
	L10.9,25.3z"/>
</svg>
